/* XPM */
static char *graphic[] = {
/* width height num_colors chars_per_pixel */
"16 16 148 2", 
/* colors */
"   c None",
".  c #4B90DF",
"X  c #4990E2",
"o  c #4990E1",
"O  c #EE851A",
"+  c #EF8519",
"@  c None",
"#  c #4990E1",
"$  c #EF841A",
"%  c #4990E2",
"&  c None",
"*  c None",
"=  c #EF841A",
"-  c #F18419",
";  c #498FE1",
":  c #EF8519",
">  c None",
",  c None",
"<  c #F0841A",
"1  c None",
"2  c None",
"3  c #518ED7",
"4  c None",
"5  c #498FE1",
"6  c None",
"7  c None",
"8  c #498FE2",
"9  c #EF851A",
"0  c #4A90E1",
"q  c #4B90E0",
"w  c None",
"e  c None",
"r  c #EF8519",
"t  c None",
"y  c #F0841A",
"u  c #4A90E2",
"i  c #4A90E1",
"p  c None",
"a  c #4A90E1",
"s  c #4B90E1",
"d  c #F08519",
"f  c None",
"g  c #4A90E2",
"h  c #4A90E2",
"j  c #4A90E2",
"k  c None",
"l  c None",
"z  c #498FE1",
"x  c None",
"c  c #EF851A",
"v  c None",
"b  c None",
"n  c None",
"m  c #EF8519",
"M  c None",
"N  c None",
"B  c None",
"V  c None",
"C  c #EF8519",
"Z  c #4A8FE1",
"A  c None",
"S  c None",
"D  c #F0851A",
"F  c #498FE1",
"G  c None",
"H  c #EF8519",
"J  c None",
"K  c None",
"L  c None",
"P  c None",
"I  c None",
"U  c #4A8FE1",
"Y  c #EF851A",
"T  c None",
"R  c None",
"E  c None",
"W  c #EF851A",
"Q  c #498FE2",
"!  c #498FE1",
"~  c #4B8FDE",
"^  c #EF851A",
"/  c #F08519",
"(  c None",
")  c None",
"_  c None",
"`  c #498FE1",
"'  c #498FE2",
"]  c #498FE1",
"[  c None",
"{  c #498FE1",
"}  c None",
"|  c #4990E1",
" . c None",
".. c None",
"X. c #518FD7",
"o. c #4990E2",
"O. c #F08519",
"+. c #4A8FE2",
"@. c #4990E3",
"#. c None",
"$. c #EF841A",
"%. c None",
"&. c None",
"*. c #F0851A",
"=. c #4990E0",
"-. c None",
";. c #F0851A",
":. c None",
">. c #EF8419",
",. c #4990E1",
"<. c #4A8FE1",
"1. c #548ED6",
"2. c #4990E1",
"3. c #F0851A",
"4. c None",
"5. c #4990E2",
"6. c None",
"7. c #4B8FE1",
"8. c #4A8FE1",
"9. c #4990E2",
"0. c #498EE1",
"q. c None",
"w. c #4A8FE2",
"e. c #4A8FE1",
"r. c None",
"t. c #4990E2",
"y. c None",
"u. c #4A8FE2",
"i. c None",
"p. c #EF841A",
"a. c #F0841A",
"s. c None",
"d. c #4A90E1",
"f. c None",
"g. c #4A90E1",
"h. c #EF8419",
"j. c #EE8519",
"k. c #EF841A",
"l. c #4C8FDF",
"z. c #EF8419",
"x. c #4990E1",
"c. c None",
"v. c #4A90E3",
"b. c None",
"n. c #EF8419",
"m. c #4990E2",
"M. c #EF8419",
"N. c #508ED8",
/* pixels */
"        n _ ; Z @.6 J &         ",
"    7 _ t.<.a j 0.k [ ,.v 2     ",
"  7 6.Q j j ] 0 E k g.j x.&.2   ",
"  _ X j ` l.@ M P q.~ ] j x.f   ",
"n z j # 1.l k.;.y / x 3 u.j 9.& ",
"_ <.j l.l Y n.p.z.W y I q j u } ",
"r.h 8.@ k.3.D T + - H < p g e.) ",
"Z j ' , ;.^ ( a.r e $ C f.w.j 5 ",
"g.j ' V y M.G 9 K : = C b.! j d.",
"b a u.4 / h...O $.d 3.c %.{ e.t ",
"s.o j 7.x *.m >.j.O.M.#.s j % y.",
"c.2.j ] X.I < C C c :.N.i j =.A ",
"  v x.j u.. S L f.%.s i j F *   ",
"  2 &.x.e.| 4.8 w.{ j j m.i.R   ",
"    2 B U w [ +.j e.% 5.N R     ",
"        1 > -.o.v.t y. .        "
};
