/* XPM */
static char *graphic[] = {
/* width height num_colors chars_per_pixel */
"32 32 355 2", 
/* colors */
"   c None",
".  c #4A90E1",
"X  c #EF841A",
"o  c #EF841A",
"O  c None",
"+  c #EF8419",
"@  c None",
"#  c #F18419",
"$  c #4990E1",
"%  c #4A90E3",
"&  c #4990E1",
"*  c #EF8419",
"=  c #EF8519",
"-  c None",
";  c #4990E2",
":  c #4A90E1",
">  c #EF841A",
",  c None",
"<  c None",
"1  c #4990E1",
"2  c #4990E2",
"3  c None",
"4  c None",
"5  c None",
"6  c #4990E2",
"7  c None",
"8  c None",
"9  c None",
"0  c None",
"q  c None",
"w  c None",
"e  c None",
"r  c #4990E2",
"t  c None",
"y  c #EF841A",
"u  c None",
"i  c #EF851A",
"p  c #EE831A",
"a  c #EF841A",
"s  c #4990E2",
"d  c None",
"f  c #4B90E2",
"g  c #498FE1",
"h  c None",
"j  c #4A90E2",
"k  c None",
"l  c None",
"z  c None",
"x  c #4A90E2",
"c  c None",
"v  c None",
"b  c None",
"n  c None",
"m  c None",
"M  c None",
"N  c None",
"B  c None",
"V  c None",
"C  c None",
"Z  c None",
"A  c #4A90E1",
"S  c None",
"D  c None",
"F  c None",
"G  c #498FE0",
"H  c #4A90E2",
"J  c #F0841A",
"K  c None",
"L  c None",
"P  c None",
"I  c None",
"U  c None",
"Y  c #498FE1",
"T  c None",
"R  c None",
"E  c None",
"W  c None",
"Q  c None",
"!  c #498FE2",
"~  c #4A90E1",
"^  c None",
"/  c #F0841A",
"(  c None",
")  c None",
"_  c None",
"`  c None",
"'  c None",
"]  c None",
"[  c #EF8519",
"{  c None",
"}  c #4A90E2",
"|  c #F08419",
" . c None",
".. c #4A90E2",
"X. c None",
"o. c None",
"O. c #498FE2",
"+. c #4A90E1",
"@. c None",
"#. c #498FE1",
"$. c None",
"%. c None",
"&. c #4A91E1",
"*. c #F0841A",
"=. c None",
"-. c #498FE2",
";. c #4A90E2",
":. c #4A90E2",
">. c #4A90E1",
",. c #EF851A",
"<. c None",
"1. c #F0841A",
"2. c None",
"3. c #4A90E1",
"4. c #4A90E1",
"5. c None",
"6. c #4A90E2",
"7. c #498FE0",
"8. c None",
"9. c #498FE1",
"0. c #EF851A",
"q. c None",
"w. c None",
"e. c #498FE0",
"r. c None",
"t. c #4A90E2",
"y. c #4A90E2",
"u. c None",
"i. c #4A90E2",
"p. c None",
"a. c None",
"s. c None",
"d. c None",
"f. c None",
"g. c #F0851A",
"h. c #EF851A",
"j. c None",
"k. c #F08519",
"l. c #EF8519",
"z. c None",
"x. c None",
"c. c None",
"v. c #4A8FE1",
"b. c #498FE1",
"n. c #EF8519",
"m. c None",
"M. c None",
"N. c #4A8FE1",
"B. c #498FE1",
"V. c None",
"C. c #498FE1",
"Z. c None",
"A. c None",
"S. c #498FE2",
"D. c None",
"F. c None",
"G. c None",
"H. c #EF8519",
"J. c #498FE1",
"K. c #498FE2",
"L. c #F08519",
"P. c None",
"I. c #EF8519",
"U. c #498FE1",
"Y. c None",
"T. c #4A8FE1",
"R. c None",
"E. c #498FE2",
"W. c None",
"Q. c #EE8419",
"!. c #4A8FE1",
"~. c None",
"^. c None",
"/. c #F08519",
"(. c None",
"). c #4A8FE2",
"_. c #498FE1",
"`. c None",
"'. c None",
"]. c None",
"[. c #4A8FE1",
"{. c None",
"}. c #F18519",
"|. c #498FE1",
" X c #EF851A",
".X c #EF8519",
"XX c None",
"oX c #F18519",
"OX c None",
"+X c None",
"@X c None",
"#X c #EF8519",
"$X c None",
"%X c #498FE1",
"&X c #4A8FE1",
"*X c None",
"=X c #EF851A",
"-X c None",
";X c #EF851A",
":X c #EF851A",
">X c #498FE1",
",X c #F1851A",
"<X c #EF851A",
"1X c #498FE1",
"2X c #EF851A",
"3X c #EE841A",
"4X c #498FE1",
"5X c None",
"6X c #F08519",
"7X c #4A8FE3",
"8X c None",
"9X c #EE8419",
"0X c #4A8FE2",
"qX c #498FE1",
"wX c None",
"eX c #F0851A",
"rX c None",
"tX c None",
"yX c #4A8FE2",
"uX c #4A8FE2",
"iX c None",
"pX c #4A8FE1",
"aX c None",
"sX c #498FE2",
"dX c #4990E0",
"fX c #4A8FE1",
"gX c #4990E2",
"hX c None",
"jX c #F08519",
"kX c None",
"lX c #F08519",
"zX c #4A8FE1",
"xX c None",
"cX c None",
"vX c #F08519",
"bX c #EF8419",
"nX c #4A8FE1",
"mX c #F0851A",
"MX c None",
"NX c #F1851A",
"BX c None",
"VX c #F0851A",
"CX c None",
"ZX c None",
"AX c None",
"SX c None",
"DX c None",
"FX c #4A8FE2",
"GX c #498EE2",
"HX c None",
"JX c None",
"KX c None",
"LX c None",
"PX c #4A8FE2",
"IX c None",
"UX c None",
"YX c #F08519",
"TX c None",
"RX c None",
"EX c None",
"WX c None",
"QX c None",
"!X c #F0851A",
"~X c None",
"^X c None",
"/X c None",
"(X c None",
")X c #4990E1",
"_X c None",
"`X c #F0851A",
"'X c None",
"]X c #EF841A",
"[X c #4A8FE1",
"{X c #F0851A",
"}X c None",
"|X c #F0851A",
" o c None",
".o c None",
"Xo c None",
"oo c None",
"Oo c #4990E2",
"+o c #4A8FE1",
"@o c None",
"#o c #F0851A",
"$o c None",
"%o c #F0851A",
"&o c #F0851A",
"*o c None",
"=o c #4A8FE2",
"-o c #F0851A",
";o c None",
":o c None",
">o c None",
",o c None",
"<o c #4990E2",
"1o c #4A8FE1",
"2o c #4990E2",
"3o c None",
"4o c None",
"5o c None",
"6o c #4990E1",
"7o c #4A8FE1",
"8o c None",
"9o c None",
"0o c #4A8FE2",
"qo c None",
"wo c None",
"eo c None",
"ro c #4A8FE2",
"to c #4990E1",
"yo c #4990E2",
"uo c #EF841A",
"io c None",
"po c #F0861A",
"ao c None",
"so c None",
"do c None",
"fo c None",
"go c None",
"ho c #4990E2",
"jo c #4A90E1",
"ko c #4990E1",
"lo c None",
"zo c None",
"xo c None",
"co c #F08419",
"vo c #4990E3",
"bo c #EF8419",
"no c None",
"mo c #4A90E1",
"Mo c None",
"No c #EF8419",
"Bo c #4990E2",
"Vo c None",
"Co c None",
"Zo c None",
"Ao c #4990E3",
"So c #4990E2",
"Do c #4A90E2",
"Fo c #4A90E2",
"Go c #4990E2",
"Ho c None",
"Jo c None",
"Ko c None",
"Lo c #EE831A",
"Po c #4A90E2",
"Io c None",
"Uo c #EF841A",
"Yo c None",
"To c #EF8419",
"Ro c None",
"Eo c None",
"Wo c None",
"Qo c None",
"!o c None",
/* pixels */
"                      Q =.TXa.9 JoxXP.Z F                       ",
"                VoKXf.!.nX=o& r r 2oxojou D MXVo                ",
"              KoXXpX& i.i.i.i.i.4.GXeoAo^ g 6o(.~.              ",
"          Qoh )X& i.i.i.i.i.i.i.6 - p.. ^Xyoi.+.[. oVo          ",
"        zoU U.7oi.i.i.i.i.i.i.i.A QXY &._X..i.i.7oE.X.Qo        ",
"      Qo8X_.i.i.i.i.i.i.i.y.1o+.OoLX: t 8.1oi.i.i.i.GoZ.Vo      ",
"      TXSoi.i.i.i.i.i.+.j GXioCo@ cX.oLXY i.i.i.i.i.i.C.E       ",
"    Ko&X7oi.i.i.i.qXb.wX:okX>o_ 'XB G.m.z.x 1 i.i.i.i.1 -.b     ",
"  Qo,o& i.i.i.i.0oT.K @oNXH.#Xa a * UocohXq [.roi.i.i.i.2 {.    ",
"  KXpXi.i.i.i.qXFoc %.vX&o-o-o-o-o-o-o2XUono7 #.1 i.i.i.i.uX5.  ",
"  f.& i.i.i.i.j BX%.> -o-oa a -o-o-o-o-o-oToD.rXBoi.i.i.i.>Xa.  ",
"Q moi.i.i.i.+.W HXI.-o-o-oh.{ 3XNo|X2X-o-o-omXq.,o0oi.i.i.y.! zo",
"KXJ.i.i.i.i.j :o]X&o-o-o2XoX3oL Yoo.po*.-o-oa bX] J.i.i.i.i.K.JX",
"$X[Xi.i.i.y.gX` lX-o-o-o=X^.aoVXuo4oj.}.y -o-oNoOXjoi.i.i.i.} Xo",
"qo6 i.i.i.1oRo8 #X-o-o-on.+Xi a -o#Xv CX`X-o-o{Xn Ho1 i.i.i.:.iX",
"AXr i.i.i.+.Co_ 2X-o-o-op F.}X# ,./.S %.:X-o-oy RXSXsXi.i.i.$ 3 ",
"Jor i.i.i.6.d 'Xa -o-o<X'.m 8oM.oo*XaXjX-o-o-o#o5X0 r i.i.i.4Xs.",
"fo4Xi.i.i.row B * -o-o| W.Io;XYXNo/X;oX -o-o-o`Xso].1 i.i.i.;.M ",
"ZX~ i.i.i.i.f O / -o-o6Xd.,X+ 2X-oL.5oeX-o-o-oJ DXG i.i.i.i.|.R.",
"P zXi.i.i.i.B.!oQ.2X-o0.@Xx.*o= k.soc.I.-o-oa g.BXSoi.i.i.i.vo4 ",
"F O.i.i.i.i.& V.UXVX-o:XvX9X,Xk $.Zo[ <X-o-obo, $or i.i.i.4.f @.",
"  EX4Xi.i.i.i.E.q noTo-o-o-o2X.X X!Xa -o-oo ( doPXi.i.i.i.;.A.  ",
"  <.6oi.i.i.i.1 7X7 gomXa -o-o-o-o-o-o%ol.( BX<ot.i.i.i.i.9.~.  ",
"  Vo .+.i.i.i.i.ro#.rX`.bXNo1.#o#o`XJ Lo, do<oqXi.i.i.i.+o'     ",
"    tX% t.i.i.i.i.1 koC V lo9ol 5XsoI BX.oPX7oi.i.i.i.s dX2.    ",
"      Y.E.i.i.i.i.i.>.5 IX(XZ u.0 w.G Sor i.i.i.i.i.4.hoT       ",
"      VoEoGoi.i.i.i.%X< MoDo-XH r 1 i.i.i.i.i.i.i.4.FXR         ",
"        Qoe fX3.i.i.e.^X0X) 8X+.i.i.i.i.i.i.i.i.s S.R Vo        ",
"          Vo~XPo1Xi.N.Y.toZXg 4.i.i.i.i.i.i.i.; ).T             ",
"              z W 9.- f.7.^XyXi.i.i.i.i.4.;.2or.2.              ",
"                  ~.wo9 WoR.H 4X4X+o|.hov.A.~.                  ",
"                      zoQ N u 3 3 M R.4 WX                      "
};
