/* XPM */
static char *graphic[] = {
/* width height num_colors chars_per_pixel */
"64 64 622 2", 
/* colors */
"   c None",
".  c None",
"X  c None",
"o  c #EF841A",
"O  c #EF841A",
"+  c #4990E1",
"@  c #4A90E1",
"#  c None",
"$  c None",
"%  c #EF8419",
"&  c None",
"*  c #4990E1",
"=  c None",
"-  c None",
";  c #F08419",
":  c #4990E1",
">  c #EF8419",
",  c #4990E2",
"<  c None",
"1  c None",
"2  c None",
"3  c #EF8519",
"4  c #F08419",
"5  c None",
"6  c None",
"7  c #4A90E2",
"8  c #EF8419",
"9  c #4A90E1",
"0  c #4990E2",
"q  c None",
"w  c #4990E2",
"e  c #4A90E1",
"r  c None",
"t  c None",
"y  c None",
"u  c None",
"i  c #4A90E2",
"p  c #4990E1",
"a  c #EF841A",
"s  c #4990E2",
"d  c None",
"f  c #4A90E3",
"g  c #4990E2",
"h  c None",
"j  c None",
"k  c None",
"l  c None",
"z  c None",
"x  c None",
"c  c #4A90E2",
"v  c None",
"b  c #EF841A",
"n  c None",
"m  c #4990E2",
"M  c #F0841A",
"N  c #EE831A",
"B  c #4A8EE1",
"V  c None",
"C  c #EF841A",
"Z  c None",
"A  c None",
"S  c None",
"D  c #EF851A",
"F  c #F0841A",
"G  c None",
"H  c #EF841A",
"J  c #4990E2",
"K  c None",
"L  c None",
"P  c #F0841A",
"I  c None",
"U  c None",
"Y  c #F08419",
"T  c #EE8519",
"R  c None",
"E  c #498FE1",
"W  c None",
"Q  c #4A90E2",
"!  c None",
"~  c None",
"^  c #F08419",
"/  c None",
"(  c None",
")  c #4A90E2",
"_  c #498FE0",
"`  c #4B90E3",
"'  c #4A90E1",
"]  c None",
"[  c None",
"{  c #4A90E2",
"}  c None",
"|  c None",
" . c None",
".. c #EE851A",
"X. c None",
"o. c None",
"O. c #4A90E2",
"+. c None",
"@. c #EF851A",
"#. c #4A90E1",
"$. c None",
"%. c #498FE1",
"&. c None",
"*. c #EF8519",
"=. c None",
"-. c #498FE0",
";. c None",
":. c None",
">. c None",
",. c #EF851A",
"<. c #4A90E2",
"1. c None",
"2. c #4A90E2",
"3. c None",
"4. c None",
"5. c None",
"6. c None",
"7. c None",
"8. c None",
"9. c #498FE1",
"0. c None",
"q. c None",
"w. c #4B90E3",
"e. c None",
"r. c #498FE1",
"t. c None",
"y. c #4A90E2",
"u. c None",
"i. c #4A90E1",
"p. c None",
"a. c None",
"s. c None",
"d. c None",
"f. c #F0841A",
"g. c #EF831A",
"h. c #F1841A",
"j. c None",
"k. c #4A90E2",
"l. c None",
"z. c #498FE1",
"x. c None",
"c. c None",
"v. c #EF8519",
"b. c None",
"n. c #F08419",
"m. c #4A90E2",
"M. c #4A90E1",
"N. c None",
"B. c #F08419",
"V. c #EF8519",
"C. c None",
"Z. c None",
"A. c None",
"S. c #EF8519",
"D. c #498FE1",
"F. c None",
"G. c #4A90E3",
"H. c #4A90E2",
"J. c #498FE1",
"K. c None",
"L. c None",
"P. c #498FE2",
"I. c #4A90E1",
"U. c #4A90E2",
"Y. c #F08419",
"T. c None",
"R. c None",
"E. c None",
"W. c #EF851A",
"Q. c None",
"!. c None",
"~. c None",
"^. c None",
"/. c #4A91E1",
"(. c #498FE1",
"). c #498FE2",
"_. c None",
"`. c None",
"'. c #4A90E2",
"]. c #4A90E1",
"[. c None",
"{. c None",
"}. c None",
"|. c #498FE1",
" X c None",
".X c #4A90E1",
"XX c None",
"oX c #EF851A",
"OX c None",
"+X c #498FE2",
"@X c #4A90E1",
"#X c None",
"$X c None",
"%X c None",
"&X c #EF8519",
"*X c #4A90E2",
"=X c None",
"-X c None",
";X c #F08519",
":X c None",
">X c None",
",X c None",
"<X c #4A90E2",
"1X c None",
"2X c #EF8519",
"3X c #498FE1",
"4X c #4A90E2",
"5X c #498FE1",
"6X c None",
"7X c #4A90E2",
"8X c None",
"9X c None",
"0X c #4A90E2",
"qX c None",
"wX c None",
"eX c None",
"rX c None",
"tX c #4A8FE1",
"yX c #498FE1",
"uX c None",
"iX c #EF851A",
"pX c #F0851A",
"aX c #4A91E3",
"sX c #4A8FE0",
"dX c None",
"fX c None",
"gX c None",
"hX c #F0851A",
"jX c None",
"kX c None",
"lX c #EF8519",
"zX c None",
"xX c None",
"cX c None",
"vX c #4A8FE1",
"bX c #498FE2",
"nX c #EF8519",
"mX c None",
"MX c None",
"NX c #F08519",
"BX c #EF8519",
"VX c None",
"CX c None",
"ZX c #4A8FE0",
"AX c #498FE1",
"SX c #4A91E2",
"DX c #4A8FE2",
"FX c None",
"GX c None",
"HX c None",
"JX c None",
"KX c #EF851A",
"LX c None",
"PX c None",
"IX c None",
"UX c None",
"YX c None",
"TX c None",
"RX c #4A8FE1",
"EX c None",
"WX c #498FE2",
"QX c None",
"!X c #F08519",
"~X c None",
"^X c None",
"/X c None",
"(X c None",
")X c None",
"_X c None",
"`X c None",
"'X c #498FE1",
"]X c #F0851A",
"[X c #4A8FE3",
"{X c None",
"}X c None",
"|X c #4A8FE2",
" o c None",
".o c #4A8FE1",
"Xo c #498FE2",
"oo c #F08519",
"Oo c None",
"+o c None",
"@o c #EF8519",
"#o c None",
"$o c None",
"%o c None",
"&o c #498FE1",
"*o c #4A8FE3",
"=o c #F08519",
"-o c None",
";o c None",
":o c #4A8FE2",
">o c #EF851A",
",o c None",
"<o c #EF851A",
"1o c None",
"2o c None",
"3o c #4A8FE1",
"4o c None",
"5o c #F0851A",
"6o c #498FE2",
"7o c None",
"8o c None",
"9o c #4A8FE0",
"0o c None",
"qo c #EF8519",
"wo c None",
"eo c #498FE1",
"ro c None",
"to c None",
"yo c None",
"uo c #F08519",
"io c #4A8FE3",
"po c None",
"ao c None",
"so c None",
"do c None",
"fo c None",
"go c None",
"ho c #4A8FE1",
"jo c #498FE1",
"ko c #498FE1",
"lo c #498FE2",
"zo c #EF851A",
"xo c #498FE2",
"co c None",
"vo c None",
"bo c None",
"no c #EF851A",
"mo c None",
"Mo c #498FE1",
"No c None",
"Bo c None",
"Vo c None",
"Co c #EF8418",
"Zo c #498FE2",
"Ao c #EF851A",
"So c #4A8FE1",
"Do c #EF851A",
"Fo c None",
"Go c #498FE1",
"Ho c None",
"Jo c #EF851A",
"Ko c #EF851A",
"Lo c #498FE2",
"Po c #EF851A",
"Io c #F0851A",
"Uo c #F08519",
"Yo c None",
"To c #498FE1",
"Ro c None",
"Eo c None",
"Wo c #F08519",
"Qo c #EF8419",
"!o c None",
"~o c #4A8FE3",
"^o c None",
"/o c None",
"(o c #EF8419",
")o c #4990E1",
"_o c #4A8FE1",
"`o c #498FE1",
"'o c #498FE2",
"]o c None",
"[o c None",
"{o c #4990E1",
"}o c #498FE1",
"|o c None",
" O c #4A8FE0",
".O c #4A8FE1",
"XO c None",
"oO c None",
"OO c #498FE1",
"+O c None",
"@O c None",
"#O c None",
"$O c #4990E1",
"%O c None",
"&O c None",
"*O c #4A8FE1",
"=O c #4A8FE2",
"-O c None",
";O c None",
":O c None",
">O c #4990E1",
",O c #4A8FE2",
"<O c None",
"1O c #4A8FE1",
"2O c None",
"3O c None",
"4O c None",
"5O c #498FE2",
"6O c #4A8FE1",
"7O c None",
"8O c #F0851A",
"9O c #EF841A",
"0O c #498FE2",
"qO c #EF841A",
"wO c None",
"eO c #4990E1",
"rO c #4A8FE1",
"tO c None",
"yO c #4A8FE2",
"uO c #4990E2",
"iO c None",
"pO c None",
"aO c None",
"sO c #F08519",
"dO c None",
"fO c #4A8FE1",
"gO c None",
"hO c None",
"jO c None",
"kO c #F0851A",
"lO c #4990E2",
"zO c None",
"xO c #EF841A",
"cO c None",
"vO c None",
"bO c None",
"nO c None",
"mO c #4A8FE1",
"MO c #4A8FE2",
"NO c #F08519",
"BO c #EF8419",
"VO c None",
"CO c None",
"ZO c None",
"AO c #4A8FE2",
"SO c None",
"DO c None",
"FO c None",
"GO c #F0851A",
"HO c #498EE2",
"JO c None",
"KO c None",
"LO c #4990E2",
"PO c None",
"IO c #4990E2",
"UO c #4A8FE2",
"YO c None",
"TO c None",
"RO c None",
"EO c None",
"WO c None",
"QO c #F08519",
"!O c #F0851A",
"~O c #F08519",
"^O c #EF8419",
"/O c None",
"(O c #EF8419",
")O c #F08519",
"_O c None",
"`O c #4A8FE1",
"'O c None",
"]O c #4990E3",
"[O c None",
"{O c #4990E2",
"}O c #4990E1",
"|O c None",
" + c None",
".+ c #4A8FE2",
"X+ c #F0851A",
"o+ c None",
"O+ c None",
"++ c None",
"@+ c None",
"#+ c #EF841A",
"$+ c #4990E1",
"%+ c None",
"&+ c #F0851A",
"*+ c #EF841A",
"=+ c #EE841A",
"-+ c None",
";+ c #4A8FE1",
":+ c #EF841A",
">+ c None",
",+ c #F0851A",
"<+ c #EF8419",
"1+ c #F0851A",
"2+ c None",
"3+ c #4A8FE1",
"4+ c None",
"5+ c None",
"6+ c None",
"7+ c #EF8419",
"8+ c #4990E2",
"9+ c #F0851A",
"0+ c None",
"q+ c #4A8FE1",
"w+ c #F0851A",
"e+ c #4990E2",
"r+ c None",
"t+ c #4990E1",
"y+ c #4990E2",
"u+ c None",
"i+ c None",
"p+ c #F0851A",
"a+ c None",
"s+ c #4A8FE1",
"d+ c #F0851A",
"f+ c #4A8FE2",
"g+ c None",
"h+ c #4A8FE1",
"j+ c None",
"k+ c #4990E2",
"l+ c None",
"z+ c #4A8FE1",
"x+ c #4A8FE2",
"c+ c None",
"v+ c #4990E1",
"b+ c None",
"n+ c #4A8FE2",
"m+ c None",
"M+ c #4990E1",
"N+ c #4A8FE1",
"B+ c None",
"V+ c None",
"C+ c #4A8FE2",
"Z+ c None",
"A+ c #EF841A",
"S+ c None",
"D+ c None",
"F+ c None",
"G+ c #F08419",
"H+ c None",
"J+ c None",
"K+ c None",
"L+ c None",
"P+ c #F08419",
"I+ c None",
"U+ c None",
"Y+ c #4A8FE2",
"T+ c #4990E2",
"R+ c None",
"E+ c #4990E1",
"W+ c #4A8FE2",
"Q+ c #F08419",
"!+ c None",
"~+ c #4990E1",
"^+ c #4A8FE2",
"/+ c #4990E1",
"(+ c None",
")+ c #4990E2",
"_+ c None",
"`+ c #EF841A",
"'+ c None",
"]+ c #EF841A",
"[+ c None",
"{+ c #4990E1",
"}+ c None",
"|+ c #4990E2",
" @ c None",
".@ c #EF8419",
"X@ c #4990E1",
"o@ c #EF8419",
"O@ c None",
"+@ c None",
"@@ c None",
"#@ c None",
"$@ c #4990E2",
"%@ c #EF841A",
"&@ c #4A90E2",
"*@ c None",
"=@ c #EE851A",
"-@ c #4A90E1",
";@ c #4A90E2",
":@ c None",
">@ c None",
",@ c None",
"<@ c None",
"1@ c #EF8419",
"2@ c None",
"3@ c None",
"4@ c None",
"5@ c #F08419",
"6@ c None",
"7@ c #4990E2",
"8@ c None",
"9@ c None",
"0@ c None",
"q@ c #4990E1",
"w@ c #488FE1",
"e@ c #4A90E2",
"r@ c #EF841A",
"t@ c None",
"y@ c #4990E2",
"u@ c #4990E1",
"i@ c None",
"p@ c #EF841A",
"a@ c #EF841A",
"s@ c #F0841A",
"d@ c #4990E2",
"f@ c None",
"g@ c #F08419",
"h@ c #4990E1",
"j@ c #F08419",
"k@ c None",
"l@ c None",
"z@ c None",
"x@ c None",
"c@ c None",
"v@ c #EF841A",
"b@ c #F08419",
"n@ c #4A90E2",
"m@ c #4990E2",
"M@ c None",
"N@ c None",
"B@ c None",
"V@ c None",
"C@ c #EF841A",
"Z@ c #EF8419",
"A@ c #4A90E1",
"S@ c #F08419",
"D@ c None",
"F@ c None",
"G@ c None",
"H@ c #4990E1",
"J@ c #EF8419",
"K@ c None",
"L@ c #4A90E3",
"P@ c #4990E1",
/* pixels */
"                                                            K@T.T.K@                                                            ",
"                                                1.XOu.l 2+{ow.IO-.|XE L 2   1X1X                                                ",
"                                        X #Ou.b.(.y@3+`oN+0X0X0X0X0X0X$+/o  j.D.q K@                                            ",
"                                    >.e.F.t+;+0O0X0X0X0X0X0X0X0X0X0Xp Yo  !+f @XH+9@d.0@r+T.                                    ",
"                                @@6.xXUOz+0X0X0X0X0X0X0X0X0X0X0X0X0Xx+x   e.G.I.VX  O+XoO.B+CXK@                                ",
"                              V oOd@OO0X0X0X0X0X0X0X0X0X0X0X0X0X0X0XfOMX  4Og #.KO  4on+0X^+{+roB@                              ",
"                          ;o++=O`o0X0X0X0X0X0X0X0X0X0X0X0X0X0X0X0X0X).J+K@DX@Xho2 X 6+N+0X0X0XTohoK+@@                          ",
"                        %oc+h@0X0X0X0X0X0X0X0X0X0X0X0X0X0X0X0X0X0X4X[O  #Oc p go  {.7 0X0X0X0X0XN+q@}.hO                        ",
"                      ;.:o* 0X0X0X0X0X0X0X0X0X0X0X0X0X0X0X0X0X0X0XU.IX  _Xh@P@(    +m@0X0X0X0X0X0X0X'.HOaO                      ",
"                    Noy+].0X0X0X0X0X0X0X0X0X0X0X0X0X0X0X0X0X0X0X0XWXaO  N.m X@YO  -O: 0X0X0X0X0X0X0X0XW+-@YO                    ",
"                  No3Xp 0X0X0X0X0X0X0X0X0X0X0X0X0X0X0X0X0X0X0X0X0X;@@@bor.0Xz.;oK@$O@X0X0X0X0X0X0X0X0X0X^+{O%O                  ",
"                O+|.p 0X0X0X0X0X0X0X0X0X0X0X0X0X0X0X0X0X0X0X@X7XY+p.   X/+].j.  d v+0X0X0X0X0X0X0X0X0X0X0X^+:oW                 ",
"              R.LO4X0X0X0X0X0X0X0X0X0X0X0X0X0X0X0X.Xw fO$+%.Yo,oro_.   oQ .+!   %+H.0X0X0X0X0X0X0X0X0X0X0X0X<X2@2               ",
"            d.x@: 0X0X0X0X0X0X0X0X0X0X0X0X0X0X: $@zO9X<@1.9@          :.EXD@hO  JO5O0X0X0X0X0X0X0X0X0X0X0X0X0X'of@T.            ",
"            FXZo0X0X0X0X0X0X0X0X0X0X0X0X0XW+e 2O%OK@    Fo@O=Xk@h POkX          }+6O].0X0X0X0X0X0X0X0X0X0X0X0X0X2.(+            ",
"          YOT+0X0X0X0X0X0X0X0X0X0X0X0X@Xk.c+V X   kXgX7.3 g@M %@2X4 :+A.= 3@GX  K@aoE ko0X0X0X0X0X0X0X0X0X0X0X0XN+n@}           ",
"        @@@+m 0X0X0X0X0X0X0X0X0X0X0X0Ov+XX:.  3.nOg.a@Y.Pod+d+d+d+d+d+H &+.@CoRokX  1XVXrON+0X0X0X0X0X0X0X0X0X0X0XGo4.9@        ",
"        5+6o0X0X0X0X0X0X0X0X0X0X0X].}Oe.  7OV+xOGOH d+d+d+d+d+d+d+d+d+d+d+d+KokO(o7oX 9@%+,Op 0X0X0X0X0X0X0X0X0X0X0X|+YO        ",
"      boE OO0X0X0X0X0X0X0X0X0X0X0O8+O+  UX+.Y Kod+d+d+d+d+d+d+d+d+d+d+d+d+d+d+d+w+IosoGX  5+yXN+0X0X0X0X0X0X0X0X0X0Xh+j+9@      ",
"      Nod@0X0X0X0X0X0X0X0X0X0X@XyXe.  - #XO d+d+d+d+d+d+d+d+d+d+d+d+d+d+d+d+d+d+d+d+f.TOkX  ]oAO0X0X0X0X0X0X0X0X0X0X0XM+~       ",
"    9@Ho^+0X0X0X0X0X0X0X0X0X0Xu@|o  UX>+n.d+d+d+d+d+d+d+d+d+d+d+d+d+d+d+d+d+d+d+d+d+d+sOrXdXK@cXMo0X0X0X0X0X0X0X0X0X0XC+6X      ",
"    #O@ 0X0X0X0X0X0X0X0X0X0XW+[o>.7OL+<od+d+d+d+d+d+d+d+d+d+d+d+d+d+d+d+d+d+d+d+d+d+d+d+BXYX  1.%.OO0X0X0X0X0X0X0X0X0X0XL@a.    ",
"    u.U.0X0X0X0X0X0X0X0X0X0X)+8.  tOo@d+d+d+d+d+d+d+d+8OoXC@> d+d+d+d+d+d+d+d+d+d+d+d+d+Po; LX   oy@0X0X0X0X0X0X0X0X0X0X&oe.    ",
"    R+J 0X0X0X0X0X0X0X0X0X: N.  S @.Kod+d+d+d+d+d+d+Kot `X5 rXQ+P O Dod+d+d+d+d+d+d+d+d+d+8 F@GX@@qX4X0X0X0X0X0X0X0X0X0X<X#@    ",
"  (X8+0X0X0X0X0X0X0X0X0X0X~+%O  Z+o d+d+d+d+d+d+d+d+NO8X      dXh %X @5@nXDod+d+d+d+d+d+d+d+lX8o  QX.+0X0X0X0X0X0X0X0X0X0X&@T.  ",
"  Bo'X0X0X0X0X0X0X0X0X0X7X&OK@kXhXPod+d+d+d+d+d+d+d+T jO  +ou+8otoFo  @O| S+O d+d+d+d+d+d+d+C K 7O1X.o0X0X0X0X0X0X0X0X0X0XyX#   ",
"  D@, 0X0X0X0X0X0X0X0X0Xw x   gXa@d+d+d+d+d+d+d+d+d+s@kX  ~.nokO=ob+t@h   +@COJ@d+d+d+d+d+d+d+`+h   $ W+0X0X0X0X0X0X0X0X0Xm@e.  ",
"  l@W+0X0X0X0X0X0X0X0X0XfOMX  u+% d+d+d+d+d+d+d+d+Do1o  3.!Xd+d+d+H B.7+%X  jX*.d+d+d+d+d+d+d+Z@j   5.m.0X0X0X0X0X0X0X0X0Xw  .  ",
"  VoN+0X0X0X0X0X0X0X0X0Xy+1.FoQoPod+d+d+d+d+d+d+d+o RO  -XlXd+d+d+d+d+Po*+3.  i@Jod+d+d+d+d+d+C G@  :OE+0X0X0X0X0X0X0X0X0X`oz   ",
"  {o0X0X0X0X0X0X0X0X0X0Xw@9@@O(Od+d+d+d+d+d+d+d+d+]+HX  = &+d+d+d+d+d+d+v.jX  OXC d+d+d+d+d+d+d+;XFoyoe+0X0X0X0X0X0X0X0X0Xp c@  ",
"K@9.0X0X0X0X0X0X0X0X0X@XYo  K.M d+d+d+d+d+d+d+d+d+P+dX  Ro,...J@Kod+d+)Oq.Fo`.pXd+d+d+d+d+d+d+d+h.kXK@io0X0X0X0X0X0X0X0X0X@Xy   ",
"@@ZX0X0X0X0X0X0X0X0X0X7X,o  k@%@d+d+d+d+d+d+d+d+~Ok       `.doZ+_OBO<+A.k@  zXnXd+d+d+d+d+d+d+d+oo-   uO0X0X0X0X0X0X0X0X0X0X.   ",
"@@ZX0X0X0X0X0X0X0X0X0X7Xi+  coiXd+d+d+d+d+d+d+d+kO8o  !o~XwO-     cO3.dX-o^XoXKod+d+d+d+d+d+d+d+5o3.  *o0X0X0X0X0X0X0X0X0X0Xv   ",
"K@eO0X0X0X0X0X0X0X0X0X@XEo  K.4 d+d+d+d+d+d+d+d+S.to  rX@o1@j@foYXk@Fo3.ZO=+H d+d+d+d+d+d+d+d+d+]X`.|Oe@0X0X0X0X0X0X0X0X0XN+go  ",
"  )o0X0X0X0X0X0X0X0X0X0XlOK@kX:+d+d+d+d+d+d+d+H *@FodX=@d+d+d+KoJ@`+/X- h Q+Dod+d+d+d+d+d+d+d+d+D Fo^.|.0X0X0X0X0X0X0X0X0X0Oro  ",
"  JX.X0X0X0X0X0X0X0X0X0X9o!+  b+Pod+d+d+d+d+d+zoD+  h &Xd+d+d+d+d+d+@oSO  +op@d+d+d+d+d+d+d+d+9+<O  ~  O0X0X0X0X0X0X0X0X0X<X6X  ",
"  x.<X0X0X0X0X0X0X0X0X0XUOEO  R a d+d+d+d+d+d+KXE.  %XO d+d+d+d+d+d+d+,@  S W.d+d+d+d+d+d+d+d+o RO  %+jo0X0X0X0X0X0X0X0X0XM.PX  ",
"  'O;+0X0X0X0X0X0X0X0X0X+ 0o  wXY d+d+d+d+d+d+^O3.  [+>oC d+d+d+d+d+Ao&   jXV.d+d+d+d+d+d+d+d+A+Q.  M@}o0X0X0X0X0X0X0X0X0XmOao  ",
"  %O7@0X0X0X0X0X0X0X0X0X@X$O@@dX9OKod+d+d+d+Jo!.    K.O@&.#+^ B.9+QOoX)X  E.p@d+d+d+d+d+d+d+b u Fo2 ~o0X0X0X0X0X0X0X0X0X0X5XI   ",
"  1X+X0X0X0X0X0X0X0X0X0X0XfO8@  vOkOd+d+d+d+DoNXU iOTXX   UXmoOo[ L.3@  7O'+qod+d+d+d+d+d+d+Wo-X  %+m.0X0X0X0X0X0X0X0X0X@XHOK@  ",
"    Z 4X0X0X0X0X0X0X0X0X0X`oF.K@kX3 Dod+d+d+d+Po% v@ooF@soC.UX        dX}Xr@d+d+d+d+d+d+d+qou N@:.[Xp 0X0X0X0X0X0X0X0X0X*Xl+    ",
"    %+Zo0X0X0X0X0X0X0X0X0X0X{ ao  E.F d+d+d+d+d+d+d+d+KoX+r@]Xc.= nOX.[.nXPod+d+d+d+d+d+H b@k@  %+lo0X0X0X0X0X0X0X0X0X0X'X$X    ",
"    < A@0X0X0X0X0X0X0X0X0X0X].)o1X  eXf.d+d+d+d+d+d+d+d+d+d+d+Ko1+B.,+Kod+d+d+d+d+d+d+d+.@-+  o..o7X0X0X0X0X0X0X0X0X0X@XRX;o    ",
"      3Oh+0X0X0X0X0X0X0X0X0X0XLoA 9@dXTOsOd+d+d+d+d+d+d+d+d+d+d+d+d+d+d+d+d+d+d+d+d+d+1@DO7O@@:@Go0X0X0X0X0X0X0X0X0X0Xw fX      ",
"      O+Xo0X0X0X0X0X0X0X0X0X0X0XrO>@  kX6 v@p+d+d+d+d+d+d+d+d+d+d+d+d+d+d+d+d+d+d+H Woa+dX9@] m@0X0X0X0X0X0X0X0X0X0X0Xi d       ",
"      K@+O^+0X0X0X0X0X0X0X0X0X0XN+_o5+  dXpOuo8 d+d+d+d+d+d+d+d+d+d+d+d+d+d+d+d+QON =.7O9@gOMO0X0X0X0X0X0X0X0X0X0X0X*XWO        ",
"        aoXo0X0X0X0X0X0X0X0X0X0X0Xp yXr K@  m+I+1@C d+d+d+d+d+d+d+d+d+d+d+d+8 UoZOh   @@^oX@@X0X0X0X0X0X0X0X0X0X0X0X5XaO        ",
"        K@j.To0X0X0X0X0X0X0X0X0X0X0XN+fOx.1.  6@8oK `+!OC d+d+d+d+d+d+9+o A+/ 7o7O  o.j.xo0X0X0X0X0X0X0X0X0X0X0X0XM.A           ",
"          F+e+N+0X0X0X0X0X0X0X0X0X0X0X0XH@>O +T.  7Oh #owoG+:+S@<+#+qO>X0.Q.Fo  :.>@z.+ 0X0X0X0X0X0X0X0X0X0X0X0XJ ]O!+          ",
"            IX&o0X0X0X0X0X0X0X0X0X0X0X0X0XOO*O0+          FokXS S cOFo      2 >@{om@7X0X0X0X0X0X0X0X0X0X0X0X0X0XAX,X            ",
"            @@l.q+0X0X0X0X0X0X0X0X0X0X0X0X0X) ~   K+2oNoK@        T.(X~ %+FO3om.p 0X0X0X0X0X0X0X0X0X0X0X0X0X0XH.VX9@            ",
"              hOaXh+0X0X0X0X0X0X0X0X0X0X0X0X]O>.@@9.W+_ >.K@/OuOvXe@y+AXH.}o0X0X0X0X0X0X0X0X0X0X0X0X0X0X0X0Xs ;Od.              ",
"                z@P.^+0X0X0X0X0X0X0X0X0X0Xm f@  mX1O4X[O  #O9 0X0X0X0X0X0X0X0X0X0X0X0X0X0X0X0X0X0X0X0X0X0X: tX{.                ",
"                  %O).5O0X0X0X0X0X0X0X0X0X`O4@  s.f+U.IX  dOh@0X0X0X0X0X0X0X0X0X0X0X0X0X0X0X0X0X0X0X0X0X: *oR.                  ",
"                    %OSX<X0X0X0X0X0X0X0X0XT+#   Z 4XWX{X  N.m 0X0X0X0X0X0X0X0X0X0X0X0X0X0X0X0X0X0X0X0X+ ` %o                    ",
"                      B@E 0 0X0X0X0X0X0X@X/.K@1XD.0XsX@@bor.0X0X0X0X0X0X0X0X0X0X0X0X0X0X0X0X0X0X0X0Xi.4+{.                      ",
"                        2 N.d@N+0X0X0X0XTol+  O+' W+/O  VO/+0X0X0X0X0X0X0X0X0X0X0X0X0X0X0X0X0X0X0O$@t.d.                        ",
"                          T.>@J.s 0X0X0X&o$.  ] '.eoo+  G Mo0X0X0X0X0X0X0X0X0X0X0X0X0X0X0X0X0XMoeONo9@                          ",
"                              # Z.yOW+0Xy+/oX qXp bX}   ,oOO0X0X0X0X0X0X0X0X0X0X0X0X0X0X0XI.So:X/o                              ",
"                                9@1 [O.Ovo  hOk+@XH+K@a.3o0X0X0X0X0X0X0X0X0X0X0X0X0X@Xw B 4.z@                                  ",
"                                    9@mXW   U+UOs+t.  n <.0X0X0X0X0X0X0X0X0X0X@XTo<.RXfXd                                       ",
"                                            o.x.g+<@  x , p @X0X0X@XJ h+M.y.t+DXV@$X;o                                          ",
"                                                9@    _.$o[Oy v _+@+bOpouXCXo.K@                                                ",
"                                                                                                                                "
};
